<svg xmlns="http://www.w3.org/2000/svg" xmlns:xlink="http://www.w3.org/1999/xlink" version="1.1" width="256" height="256" viewBox="0 0 256 256" xml:space="preserve">
<g style="stroke: none; stroke-width: 0; stroke-dasharray: none; stroke-linecap: butt; stroke-linejoin: miter; stroke-miterlimit: 10; fill: none; fill-rule: nonzero; opacity: 1;" transform="translate(76.40155642023348 76.40155642023345) scale(1.14 1.14)">
	<path d="M 45 0 C 20.147 0 0 20.147 0 45 c 0 24.853 20.147 45 45 45 s 45 -20.147 45 -45 C 90 20.147 69.853 0 45 0 z M 43 18.595 c 0 -1.104 0.896 -2 2 -2 s 2 0.896 2 2 V 30 c 0 1.104 -0.896 2 -2 2 s -2 -0.896 -2 -2 V 18.595 z M 45 71 c -14.336 0 -26 -11.663 -26 -26 c 0 -9.587 5.251 -18.366 13.704 -22.912 c 0.973 -0.525 2.186 -0.158 2.708 0.814 c 0.523 0.973 0.159 2.186 -0.814 2.708 C 27.444 29.458 23 36.888 23 45 c 0 12.131 9.869 22 22 22 s 22 -9.869 22 -22 c 0 -8.112 -4.444 -15.542 -11.599 -19.389 c -0.973 -0.523 -1.337 -1.736 -0.814 -2.708 c 0.522 -0.972 1.733 -1.339 2.709 -0.814 C 65.749 26.634 71 35.414 71 45 C 71 59.337 59.337 71 45 71 z" style="stroke: none; stroke-width: 1; stroke-dasharray: none; stroke-linecap: butt; stroke-linejoin: miter; stroke-miterlimit: 10; fill: rgb(233,0,0); fill-rule: nonzero; opacity: 1;" transform=" matrix(1 0 0 1 0 0) " stroke-linecap="round"/>
</g>
</svg>